<svg id="レイヤー_1" data-name="レイヤー 1" xmlns="http://www.w3.org/2000/svg" viewBox="0 0 324.1 112.6"><defs><style>.cls-1{fill:#e71f19;}</style></defs><path class="cls-1" d="M50.1,188.6l-2.4-10.2,19-.9-2.2-59.2,15.7,2.5v56.1l18.2-.9V104.7H54.8L52.4,94.3l100.2-4.9v15.3H114.3l-2,70.7,44.7-1.9v15.2Zm95.4-51a12,12,0,0,1-12.1,12,12.1,12.1,0,0,1,0-24.1A11.8,11.8,0,0,1,142,129,11.9,11.9,0,0,1,145.5,137.6Z" transform="translate(-47.7 -82.4)"/><path class="cls-1" d="M262.7,176.3l-.6,16.6-12.2,1.2V176.3H229.7l-2.5-10.2,22.7-2v-12H238.4q-1.7,2.8-3.3,5.4l-3.4,4.8-5.6-3.5-1,35.3-24.8-5.8v-6.4l14-2.8V166.7H186.5a98.2,98.2,0,0,1-4.2,15.2,108.4,108.4,0,0,1-5.4,12.2l-6.3-3.1a165.9,165.9,0,0,0,5-24.9,255.6,255.6,0,0,0,1.7-30.5V116.7l-1.3,1.2-1.5,1.1-3.9-7.6a95.8,95.8,0,0,0,9.2-13.1q3.6-6.5,7.2-14.7l17.5,1.3c-1.6,2.5-3.1,4.9-4.6,7l15.9-2.4,6.5,11-5.2,4.7c-1.6,1.4-3.2,2.8-5,4.2l15.5-1.4-1.4,46.9c1.5-3.9,2.9-8.1,4.3-12.6s2.4-8.9,3.3-13.3l14,4.2-3.5,7.9,5.6-.6v-13l14.6,1.2-.3,10.2,14.4-1.6v14.8H263.7l-.5,10.8,17.9-1.6v15Zm-71-73.9a37.4,37.4,0,0,1-2.7,3.1l-3.1,3.2h3.9v2.8l10-.9a46.6,46.6,0,0,0,2.5-4,17.7,17.7,0,0,0,2-4.2Zm4.4,40.7h-6.4c-.1,2.4-.2,4.7-.5,7s-.5,4.5-.8,6.7l7.7-1Zm0-21.1h-6.3v11.8l6.3-.9Zm18.2,21.1h-8l-.6,11.3,8.6-1.1Zm0-21.1h-6.6l-.7,9.4,7.3-.9Zm35.6.7v-5.6l12.9-3.2.6-11h-8.9a46.2,46.2,0,0,1-8.9,14.5,109.4,109.4,0,0,1-11.6,11l-6.3-5.8a90.8,90.8,0,0,0,6.5-9.2,46.3,46.3,0,0,0,4.8-10.5h-8.7l-2.5-10,51-4.8-4.4,40.4Z" transform="translate(-47.7 -82.4)"/><path class="cls-1" d="M317.9,160.3a8.2,8.2,0,0,1-4.3,5.3,9.2,9.2,0,0,1-6.9.6,8.5,8.5,0,0,1-5.3-4.3,8.8,8.8,0,0,1-.7-6.9,8.6,8.6,0,0,1,4.4-5.3,8.3,8.3,0,0,1,6.9-.6,8.4,8.4,0,0,1,5.3,4.3A8.3,8.3,0,0,1,317.9,160.3Zm-8.8-19.9,14.8-58,15.5,4.8-20,56.4Z" transform="translate(-47.7 -82.4)"/><path class="cls-1" d="M326.6,191.4a8.3,8.3,0,0,1-5.9,3.5,8.8,8.8,0,0,1-6.6-1.8,9,9,0,0,1-3.6-5.9,8.9,8.9,0,0,1,7.7-10.1,8.6,8.6,0,0,1,6.7,1.7,8.9,8.9,0,0,1,3.5,5.9A8.5,8.5,0,0,1,326.6,191.4Zm-1.5-21.7,33.8-49.4,12.9,9.7-38.1,46.2Z" transform="translate(-47.7 -82.4)"/></svg>