<svg id="レイヤー_1" data-name="レイヤー 1" xmlns="http://www.w3.org/2000/svg" viewBox="0 0 317.1 101.9"><defs><style>.cls-1{fill:#231815;}.cls-2{fill:#040000;}</style></defs><path class="cls-1" d="M75.4,99.3v1.8H73.3v9.4l-2.1,3.9H64.1V101.1H62.8l-1-1.8h4.1v13.3h4.2l1.3-2.5V99.3Z" transform="translate(-42.6 -73.3)"/><path class="cls-1" d="M90.2,100.1v14H84l4.4-8.3v-4H85.7l-3.4,6.4v7H80.5v-3.7l-1.4,2.6h-.7l-.9-1.7H78l2.5-4.7V103h-3v-1.7h3V98.5h1.8v6l2.3-4.4Zm-1.8,9-1.7,3.2h1.7Z" transform="translate(-42.6 -73.3)"/><path class="cls-1" d="M97.3,106.5l3.3,6.3h2l-1,1.9H99.5l-4.4-8.2,4.3-8h2.1Z" transform="translate(-42.6 -73.3)"/><path class="cls-1" d="M119.6,100v12.4H121l-1,1.8h-2.2V101.8h-2.4l-3.2,6.1v7.3h-1.8v-4.1l-1.6,2.9h-.6l-1-1.7h.6l2.6-5V103h-3.1v-1.8h3.1V98.5h1.8v5.6l2.2-4.1Z" transform="translate(-42.6 -73.3)"/><path class="cls-1" d="M136.5,100v1.9H131l-6,11.3h-.7l-1-1.8h.6l5.1-9.5h-4.3V100H129V98.5h1.8V100Zm-6.7,10.2h1.8l-1.4,2.5h7l-.9,1.7h-8.8Zm7.5-5.6-1.9,3.6h-1.8l1-1.9h-3.5l.9-1.7Z" transform="translate(-42.6 -73.3)"/><path class="cls-1" d="M71.8,157l3.9,7.3h25.2v4.9H73l-3.5-6.4-3.4,6.4H63.6L61,164.4h2.1l3.7-7.1V138.4H62.4v-4.8h9.4Zm-9.5-35.5H73.7l-2.5,4.8H62.3ZM76,159.4V121.5h6l2.9-5.5h5.6l-2.9,5.5H97v16.2H81v3.9H99.3v17.8Zm16.1-26.5v-6.6H81v6.6Zm2.3,21.7v-8.2H81v8.2Z" transform="translate(-42.6 -73.3)"/><path class="cls-1" d="M104.3,126.6h14.5v4.8H104.3Zm.7-7.8h13.1v4.6H105Zm12.9,31.5v18.9H105.2V150.3Zm-12.6-15.7h12.5v4.5H105.3ZM117.8,147H105.3v-4.5h12.5Zm-8,7.9v9.8h3.4v-9.8Zm17.5-10.6v14.2l.9-1.6h5l-5.1,9.6h-7.2l-2.4-4.6h4.2V144.3h-2.9v-4.5h10.5v4.5Zm12.8,14v-4.5h3.7v15.4h-3.7l-9.5-17.9V132.1H119.5v-4.8h11.1v-9.6h5.1v9.6h7.1v4.8h-7.1v18Zm1-39.7,1.9,3.5-2.6,4.9-4.5-8.4Z" transform="translate(-42.6 -73.3)"/><path class="cls-1" d="M169.7,146.7l-12,22.5h-5.8l-2.5-4.7H155l2.6-5-2.3-4.4-4.6,8.5-2.6-4.7,2.7-5.1h3.8l-3.6-6.7h3.3l5,9.3.5-1-4.5-8.3h3.3l2.8,5.3.5-.9-2.4-4.4h3.3l.7,1.3,1.3-2.3H151.3V119h18.2v4.1h-6.1v3.8h5.1v4h-5.1v3.2h5.1v4h-5.1V142h6.3Zm-10.4-19.8v-3.8h-3.8v3.8Zm-3.8,7.2h3.8v-3.2h-3.8Zm3.8,4h-3.8V142h3.8Zm23.8,17.1,5.1,9.4h2.9v4.6h-5.4L180,158.6l-5.7,10.6h-4.9l-2.5-4.6h4.9l5-9.4h-6.5V139.7h7.5v-3.4h-3.7v-4.2h11.8v4.2h-3.7v3.4h7.4v15.5Zm-3.9-33-8,15.2-2.6-4.9,7.9-14.8h7l7.8,14.7-2.6,5-8-15.2Zm-1.3,21.6h-3V151h3Zm4.2,7.2H185v-7.2h-2.9Z" transform="translate(-42.6 -73.3)"/><path class="cls-1" d="M206.1,102h3.6v18.5H204l-1.3-2.4h4.5V104.4h-1.4l-8.5,16.1H196l-1.3-2.4h1.1l7.2-13.7h-6.3V102h6.9V98.5h2.5Zm4-1.1h2.7l1.5,2.7v11.8h-2.4V104.2Z" transform="translate(-42.6 -73.3)"/><path class="cls-1" d="M210.3,133.3v12H199l-1.3-2.5h10v-7H194.5l2.1-3.9v-6.5h2.5v6.3l-.9,1.6Zm-5.2-5.9H202l-1-2h3.1l-1.2-2.2h2.9l2.2,4.2Z" transform="translate(-42.6 -73.3)"/><path class="cls-1" d="M212.4,149v19.8h-7.6l-1.3-2.5h6.3V151.5H199.1v13.8l6.4-12h2.9l-8.2,15.5h-3.6V149Z" transform="translate(-42.6 -73.3)"/><path class="cls-1" d="M237.5,99v71.1h-7.6l-3.6-6.7H231V138.5h-5.3v31.6h-6.3l-3.7-6.7h3.5V99ZM231,115.5v-9.8h-5.3v9.8Zm-5.3,6.7v9.6H231v-9.6Zm39.9,41.1v-8.2h5.7v15H256.6v-33h-3.4v33H241.9l-3.6-6.8h8.1V137.1h-6.3V112.6h13.3l8.2-14.8,7.6.2-8.1,14.6h9.3v24.5h-7v26.2ZM241.8,97.9h7.7l3.9,7.5-3.8,7.2Zm21.7,32.5v-11H247v11Z" transform="translate(-42.6 -73.3)"/><path class="cls-1" d="M318.9,162.9V139.7H326v30.4H274.7V139.7h7.1v23.2h14.9V134.2H278.4V104.4h7.1v22.5h11.2v-29H304v29h11.2V104.4h7.1v29.8H304v28.7Z" transform="translate(-42.6 -73.3)"/><path class="cls-2" d="M353.9,156.3,339,171.2l-2.2-2.1.3-.2h-3a1.1,1.1,0,0,1-1-1.1v-2.9l-.2.2a2.6,2.6,0,0,0-.7,1.1l-1.4,5,4.9-1.5a2.4,2.4,0,0,0,1.1-.6l2.2,2.1a6.1,6.1,0,0,1-2.4,1.5l-7.7,2.2a1.4,1.4,0,0,1-1.5-.4,1.6,1.6,0,0,1-.4-1.5l2.3-7.7a4.9,4.9,0,0,1,1.4-2.4L345.6,148Zm4.5-10.3a4.1,4.1,0,0,1,0,5.8l-3,3.1-8.4-8.3,3.1-3.1a4.1,4.1,0,0,1,5.8,0Z" transform="translate(-42.6 -73.3)"/><rect class="cls-2" x="18.5" y="99.3" width="265" height="2.62"/><text x="-42.6" y="-73.3"/></svg>